<svg xmlns="http://www.w3.org/2000/svg" viewBox="0 0 64 64">
  <style>
    .bg { fill: #000000; }
    .drop { fill: #FFFFFF; }
    @media (prefers-color-scheme: light) {
      .bg { fill: #FFFFFF; }
      .drop { fill: #000000; }
    }
  </style>
  <!-- Responsive background (black in dark mode, white in light mode) -->
  <rect width="64" height="64" class="bg" rx="12"/>
  
  <!-- Water drop (white in dark mode, black in light mode) -->
  <!-- Original viewBox is 0,0,400,600, water drop center is around (200, 300) -->
  <g transform="translate(32, 32) scale(0.30) translate(-200, -300)">
    <path d="M216.992 231.393 C 215.065 232.279,214.142 233.626,212.271 238.281 C 210.127 243.614,208.534 246.822,205.461 251.998 C 201.712 258.312,201.622 261.689,205.154 263.516 C 209.213 265.615,212.675 262.590,218.086 252.221 L 219.067 250.340 220.650 253.503 C 224.369 260.934,229.857 268.046,239.649 278.125 C 252.737 291.598,255.681 297.348,255.645 309.375 C 255.546 341.900,217.409 358.091,191.312 336.686 C 187.078 333.212,184.214 332.743,181.585 335.092 C 176.289 339.824,186.296 349.870,201.300 354.886 C 247.010 370.167,285.624 318.865,257.053 280.813 C 255.375 278.578,251.104 273.763,247.561 270.113 C 235.733 257.927,230.373 250.117,225.926 238.590 C 225.155 236.594,224.283 234.491,223.987 233.918 C 222.787 231.590,219.300 230.331,216.992 231.393 M172.025 248.040 C 170.937 248.479,168.959 251.003,166.578 254.988 C 164.157 259.040,160.450 263.977,154.688 270.826 C 144.669 282.732,142.703 292.127,147.710 304.168 C 159.928 333.548,204.188 324.449,204.083 292.578 C 204.053 283.561,202.041 279.276,192.795 268.540 C 187.070 261.891,183.673 257.295,181.257 252.930 C 178.624 248.172,175.626 246.585,172.025 248.040 M175.141 264.160 C 175.456 265.382,180.337 271.771,184.730 276.710 C 191.699 284.544,192.729 286.632,192.751 292.969 C 192.809 309.117,172.586 316.856,161.447 304.948 C 154.675 297.708,154.824 287.665,161.823 279.632 C 166.916 273.788,170.961 268.725,172.656 266.075 C 174.595 263.044,174.811 262.877,175.141 264.160" class="drop" fill-rule="evenodd"/>
  </g>
</svg>
